<?xml version="1.0" encoding="UTF-8" standalone="no"?>
<!-- Created with Inkscape (http://www.inkscape.org/) -->
<svg xmlns:dc="http://purl.org/dc/elements/1.1/" xmlns:cc="http://creativecommons.org/ns#" xmlns:rdf="http://www.w3.org/1999/02/22-rdf-syntax-ns#" xmlns:svg="http://www.w3.org/2000/svg" xmlns="http://www.w3.org/2000/svg" xmlns:xlink="http://www.w3.org/1999/xlink" xmlns:sodipodi="http://sodipodi.sourceforge.net/DTD/sodipodi-0.dtd" xmlns:inkscape="http://www.inkscape.org/namespaces/inkscape" width="420mm" height="594mm" viewBox="0 0 420 594" version="1.1" id="svg8" inkscape:version="0.92.4 5da689c313, 2019-01-14" sodipodi:docname="poster.svg">
  <defs id="defs2">
    <linearGradient inkscape:collect="always" id="linearGradient991">
      <stop style="stop-color:#3333;stop-opacity:0.16595745" offset="0" id="stop987"/>
      <stop style="stop-color:#ffffff;stop-opacity:0" offset="1" id="stop989"/>
    </linearGradient>
    <linearGradient inkscape:collect="always" xlink:href="#linearGradient991" id="linearGradient993" x1="-177.8" y1="51.202084" x2="-177.8" y2="55.170834" gradientUnits="userSpaceOnUse"/>
    <linearGradient inkscape:collect="always" xlink:href="#linearGradient991" id="linearGradient1170" gradientUnits="userSpaceOnUse" x1="-177.8" y1="51.202084" x2="-177.8" y2="55.170834"/>
  </defs>
  <sodipodi:namedview id="base" pagecolor="#ffffff" bordercolor="#666666" borderopacity="1.0" inkscape:pageopacity="0.0" inkscape:pageshadow="2" inkscape:zoom="0.24748737" inkscape:cx="726.22319" inkscape:cy="1308.5584" inkscape:document-units="mm" inkscape:current-layer="layer1" showgrid="false" inkscape:window-width="1080" inkscape:window-height="1892" inkscape:window-x="1920" inkscape:window-y="0" inkscape:window-maximized="1" inkscape:snap-bbox="true" inkscape:bbox-paths="true" inkscape:bbox-nodes="true" inkscape:snap-bbox-midpoints="true" inkscape:snap-bbox-edge-midpoints="true" inkscape:object-paths="true" inkscape:snap-intersection-paths="true" inkscape:snap-smooth-nodes="true" inkscape:snap-midpoints="true" inkscape:snap-global="true" inkscape:snap-grids="true" fit-margin-top="5" fit-margin-left="5" fit-margin-right="5" fit-margin-bottom="5">
    <inkscape:grid type="xygrid" id="grid858" originx="164.29476" originy="-206.18759"/>
  </sodipodi:namedview>
  <metadata id="metadata5">
    <rdf:RDF>
      <cc:Work rdf:about="">
        <dc:format>image/svg+xml</dc:format>
        <dc:type rdf:resource="http://purl.org/dc/dcmitype/StillImage"/>
        <dc:title/>
      </cc:Work>
    </rdf:RDF>
  </metadata>
  <g inkscape:label="Layer 1" inkscape:groupmode="layer" id="layer1" transform="translate(164.29476,503.18758)">
    <g id="g1168" transform="translate(80.488864,-27.085449)">
      <path sodipodi:nodetypes="ccccccccccccccccccccccccccc" inkscape:connector-curvature="0" style="opacity:1;fill:none;fill-opacity:0.88085172;stroke:#000000;stroke-width:6.02839375;stroke-linecap:square;stroke-linejoin:miter;stroke-miterlimit:4;stroke-dasharray:none;stroke-dashoffset:5.39899015;stroke-opacity:0.18018021;paint-order:normal" d="m -168.74801,-439.58523 v 200.94646 l 33.49117,-33.49107 33.49103,50.23662 50.236616,-50.23662 33.491034,33.49107 16.7455809,-16.74553 33.4910341,33.49108 16.745581,-16.74555 16.745581,16.74555 33.491034,-33.49108 V -339.112 L -2.0235812,-439.5847 Z m 33.49117,234.43755 -33.49117,33.49107 v 66.98215 H 99.180651 v -83.72769 l -33.491034,33.49107 -16.745581,-16.74553 -16.745581,16.74553 -33.4910341,-33.49107 -16.7455809,16.74554 -33.491034,-33.49107 -50.236616,50.2366 z" id="path1007"/>
      <g transform="matrix(10.823665,0,0,10.823665,1965.5293,-832.51695)" id="text975" style="font-style:normal;font-weight:normal;font-size:6.23195648px;line-height:1.25;font-family:sans-serif;letter-spacing:0px;word-spacing:0px;fill:#333333;fill-opacity:1;stroke:none;stroke-width:0.30942452" aria-label="artistes en grève.jpg">
        <path inkscape:connector-curvature="0" id="path1081" style="font-style:normal;font-variant:normal;font-weight:normal;font-stretch:normal;line-height:0;font-family:'Inter UI';-inkscape-font-specification:'Inter UI';text-align:center;text-anchor:middle;fill:#333333;stroke-width:0.30942452" d="m -197.61832,76.698463 h 0.52228 v -2.097974 c 0,-1.000299 -0.66391,-1.345536 -1.35438,-1.345536 -0.36294,0 -1.04456,0.09737 -1.31898,0.832108 l 0.48687,0.185897 c 0.15934,-0.362941 0.43376,-0.55769 0.84096,-0.55769 0.50457,0 0.82325,0.300976 0.82325,0.787847 v 0.04426 l -0.15934,0.01771 c -0.57539,0.06197 -2.036,0.115078 -2.036,1.195048 0,0.637359 0.51342,1.018004 1.15964,1.018004 0.59309,0 0.90292,-0.318679 1.00915,-0.539985 h 0.0265 z m 0,-1.690772 v 0.460315 c 0,0.424906 -0.34523,0.84096 -1.02685,0.84096 -0.34524,0 -0.64621,-0.203601 -0.64621,-0.548837 0,-0.708177 1.2216,-0.717029 1.56684,-0.743586 z"/>
        <path inkscape:connector-curvature="0" id="path1083" style="font-style:normal;font-variant:normal;font-weight:normal;font-stretch:normal;line-height:0;font-family:'Inter UI';-inkscape-font-specification:'Inter UI';text-align:center;text-anchor:middle;fill:#333333;stroke-width:0.30942452" d="m -194.46694,73.263806 c -0.0354,-0.0089 -0.13278,-0.01771 -0.25671,-0.01771 -0.39835,0 -0.7967,0.309828 -0.89408,0.637359 h -0.0354 v -0.584246 h -0.52228 v 3.399249 h 0.52228 v -1.947486 c 0.009,-0.442611 0.34523,-0.964891 0.91177,-0.964891 0.13279,0 0.22131,0.0089 0.27442,0.0177 z"/>
        <path inkscape:connector-curvature="0" id="path1085" style="font-style:normal;font-variant:normal;font-weight:normal;font-stretch:normal;line-height:0;font-family:'Inter UI';-inkscape-font-specification:'Inter UI';text-align:center;text-anchor:middle;fill:#333333;stroke-width:0.30942452" d="m -192.16981,73.299214 h -0.72588 v -0.725881 h -0.52228 v 0.725881 h -0.54884 v 0.486872 h 0.54884 v 2.08027 c 0,0.593098 0.51343,0.858664 0.92063,0.858664 0.21245,0 0.24786,-0.0089 0.33638,-0.03541 v -0.478019 c -0.0885,0.0089 -0.11508,0.0177 -0.2036,0.0177 -0.19475,0 -0.53113,-0.0089 -0.53113,-0.504576 v -1.938634 h 0.72588 z"/>
        <path inkscape:connector-curvature="0" id="path1087" style="font-style:normal;font-variant:normal;font-weight:normal;font-stretch:normal;line-height:0;font-family:'Inter UI';-inkscape-font-specification:'Inter UI';text-align:center;text-anchor:middle;fill:#333333;stroke-width:0.30942452" d="m -191.19607,72.812343 c 0.23016,0 0.37179,-0.15934 0.37179,-0.354089 0,-0.177044 -0.14163,-0.354088 -0.37179,-0.354088 -0.23016,0 -0.37179,0.177044 -0.37179,0.354088 0,0.194749 0.14163,0.354089 0.37179,0.354089 z m 0.26557,0.486871 h -0.52228 v 3.399249 h 0.52228 z"/>
        <path inkscape:connector-curvature="0" id="path1089" style="font-style:normal;font-variant:normal;font-weight:normal;font-stretch:normal;line-height:0;font-family:'Inter UI';-inkscape-font-specification:'Inter UI';text-align:center;text-anchor:middle;fill:#333333;stroke-width:0.30942452" d="m -190.0984,74.237549 c 0,0.407202 0.28327,0.778994 0.89407,0.929482 l 0.56654,0.141635 c 0.33639,0.07967 0.47802,0.247862 0.47802,0.469168 0,0.28327 -0.27442,0.531132 -0.76129,0.531132 -0.50457,0 -0.74358,-0.265566 -0.86752,-0.575394 l -0.47801,0.177045 c 0.16819,0.424906 0.53998,0.858664 1.35438,0.858664 0.84096,0 1.29243,-0.495724 1.29243,-1.009152 0,-0.389497 -0.25672,-0.752438 -0.87637,-0.902925 l -0.50458,-0.123931 c -0.3895,-0.09737 -0.57539,-0.292123 -0.57539,-0.522281 0,-0.292123 0.30983,-0.504576 0.72588,-0.504576 0.52228,0 0.65506,0.336384 0.71703,0.486872 l 0.46917,-0.132783 c -0.17705,-0.495724 -0.5754,-0.805552 -1.1862,-0.805552 -0.71703,0 -1.24816,0.424907 -1.24816,0.982596 z"/>
        <path inkscape:connector-curvature="0" id="path1091" style="font-style:normal;font-variant:normal;font-weight:normal;font-stretch:normal;line-height:0;font-family:'Inter UI';-inkscape-font-specification:'Inter UI';text-align:center;text-anchor:middle;fill:#333333;stroke-width:0.30942452" d="m -185.35805,73.299214 h -0.72588 v -0.725881 h -0.52228 v 0.725881 h -0.54884 v 0.486872 h 0.54884 v 2.08027 c 0,0.593098 0.51342,0.858664 0.92063,0.858664 0.21245,0 0.24786,-0.0089 0.33638,-0.03541 v -0.478019 c -0.0885,0.0089 -0.11508,0.0177 -0.2036,0.0177 -0.19475,0 -0.53113,-0.0089 -0.53113,-0.504576 v -1.938634 h 0.72588 z"/>
        <path inkscape:connector-curvature="0" id="path1093" style="font-style:normal;font-variant:normal;font-weight:normal;font-stretch:normal;line-height:0;font-family:'Inter UI';-inkscape-font-specification:'Inter UI';text-align:center;text-anchor:middle;fill:#333333;stroke-width:0.30942452" d="m -183.26894,76.769281 c 0.68162,0 1.2039,-0.318679 1.4075,-0.805551 l -0.46916,-0.203601 c -0.15934,0.327532 -0.53999,0.539985 -0.95604,0.539985 -0.54441,0 -0.96268,-0.365154 -1.02686,-1.097674 h 2.53173 v -0.221305 c 0,-1.248162 -0.75244,-1.726182 -1.53143,-1.726182 -0.97374,0 -1.53143,0.743586 -1.53143,1.752738 0,1.009152 0.53998,1.76159 1.57569,1.76159 z m -0.0266,-3.04516 c 0.61966,0 1.0003,0.451462 1.0003,1.026856 h -2.01387 c 0.073,-0.652851 0.44482,-1.026856 1.01357,-1.026856 z"/>
        <path inkscape:connector-curvature="0" id="path1095" style="font-style:normal;font-variant:normal;font-weight:normal;font-stretch:normal;line-height:0;font-family:'Inter UI';-inkscape-font-specification:'Inter UI';text-align:center;text-anchor:middle;fill:#333333;stroke-width:0.30942452" d="m -181.11786,74.237549 c 0,0.407202 0.28328,0.778994 0.89408,0.929482 l 0.56654,0.141635 c 0.33638,0.07967 0.47802,0.247862 0.47802,0.469168 0,0.28327 -0.27442,0.531132 -0.76129,0.531132 -0.50458,0 -0.74359,-0.265566 -0.86752,-0.575394 l -0.47802,0.177045 c 0.16819,0.424906 0.53999,0.858664 1.35439,0.858664 0.84096,0 1.29242,-0.495724 1.29242,-1.009152 0,-0.389497 -0.25671,-0.752438 -0.87637,-0.902925 l -0.50457,-0.123931 c -0.3895,-0.09737 -0.5754,-0.292123 -0.5754,-0.522281 0,-0.292123 0.30983,-0.504576 0.72589,-0.504576 0.52228,0 0.65506,0.336384 0.71703,0.486872 l 0.46916,-0.132783 c -0.17704,-0.495724 -0.57539,-0.805552 -1.18619,-0.805552 -0.71703,0 -1.24817,0.424907 -1.24817,0.982596 z"/>
        <path inkscape:connector-curvature="0" id="path1097" style="font-style:normal;font-variant:normal;font-weight:normal;font-stretch:normal;line-height:0;font-family:'Inter UI';-inkscape-font-specification:'Inter UI';text-align:center;text-anchor:middle;fill:#333333;stroke-width:0.30942452" d="m -174.70887,76.769281 c 0.68162,0 1.2039,-0.318679 1.40751,-0.805551 l -0.46917,-0.203601 c -0.15934,0.327532 -0.53999,0.539985 -0.95604,0.539985 -0.54441,0 -0.96268,-0.365154 -1.02686,-1.097674 h 2.53174 v -0.221305 c 0,-1.248162 -0.75244,-1.726182 -1.53144,-1.726182 -0.97374,0 -1.53143,0.743586 -1.53143,1.752738 0,1.009152 0.53999,1.76159 1.57569,1.76159 z m -0.0266,-3.04516 c 0.61965,0 1.0003,0.451462 1.0003,1.026856 h -2.01388 c 0.073,-0.652851 0.44482,-1.026856 1.01358,-1.026856 z"/>
        <path inkscape:connector-curvature="0" id="path1099" style="font-style:normal;font-variant:normal;font-weight:normal;font-stretch:normal;line-height:0;font-family:'Inter UI';-inkscape-font-specification:'Inter UI';text-align:center;text-anchor:middle;fill:#333333;stroke-width:0.30942452" d="m -171.94698,74.689012 c 0,-0.63736 0.48687,-0.929483 0.87637,-0.929483 0.43376,0 0.74358,0.31868 0.74358,0.814404 v 2.12453 h 0.52228 v -2.159939 c 0,-0.867517 -0.46031,-1.283571 -1.09767,-1.283571 -0.51343,0 -0.84981,0.274419 -1.00915,0.619655 h -0.0354 v -0.575394 h -0.52228 v 3.399249 h 0.52228 z"/>
        <path inkscape:connector-curvature="0" id="path1101" style="font-style:normal;font-variant:normal;font-weight:normal;font-stretch:normal;line-height:0;font-family:'Inter UI';-inkscape-font-specification:'Inter UI';text-align:center;text-anchor:middle;fill:#333333;stroke-width:0.30942452" d="m -195.50264,80.04853 v 0.380646 h -0.0487 c -0.17261,-0.247862 -0.46031,-0.442611 -0.9339,-0.442611 -0.92063,0 -1.53144,0.68162 -1.53144,1.708477 0,1.071117 0.61966,1.735033 1.53144,1.735033 0.45367,0 0.74358,-0.199175 0.92284,-0.451463 h 0.0597 v 0.407202 c -0.009,0.593098 -0.39835,0.849812 -0.96489,0.849812 -0.56654,0 -0.7967,-0.309827 -0.92063,-0.451463 l -0.3895,0.309828 c 0.21246,0.300975 0.60195,0.610802 1.31013,0.610802 0.82326,0 1.48717,-0.44261 1.48717,-1.2039 V 80.04853 Z m -1.99175,1.646512 c 0,-0.76129 0.42491,-1.23931 1.01801,-1.23931 0.45146,0 0.8144,0.300975 0.93833,0.699325 0.0664,0.230157 0.0708,0.451463 0.0708,0.531132 0,0.08852 -0.004,0.345237 -0.062,0.548838 -0.10622,0.433758 -0.53113,0.717029 -0.95603,0.717029 -0.56655,0 -1.00916,-0.451463 -1.00916,-1.257014 z"/>
        <path inkscape:connector-curvature="0" id="path1103" style="font-style:normal;font-variant:normal;font-weight:normal;font-stretch:normal;line-height:0;font-family:'Inter UI';-inkscape-font-specification:'Inter UI';text-align:center;text-anchor:middle;fill:#333333;stroke-width:0.30942452" d="m -192.35126,79.995417 c -0.0354,-0.0089 -0.13279,-0.0177 -0.25672,-0.0177 -0.39835,0 -0.7967,0.309827 -0.89407,0.637359 h -0.0354 v -0.58425 h -0.52228 v 3.399249 h 0.52228 v -1.947486 c 0.009,-0.442611 0.34524,-0.964891 0.91178,-0.964891 0.13278,0 0.2213,0.0089 0.27442,0.0177 z"/>
        <path inkscape:connector-curvature="0" id="path1105" style="font-style:normal;font-variant:normal;font-weight:normal;font-stretch:normal;line-height:0;font-family:'Inter UI';-inkscape-font-specification:'Inter UI';text-align:center;text-anchor:middle;fill:#333333;stroke-width:0.30942452" d="m -190.40379,83.500893 c 0.68162,0 1.2039,-0.31868 1.4075,-0.805551 l -0.46916,-0.203601 c -0.15934,0.327531 -0.53999,0.539985 -0.95604,0.539985 -0.54441,0 -0.96268,-0.365154 -1.02686,-1.097675 h 2.53173 v -0.221305 c 0,-1.248162 -0.75244,-1.726181 -1.53143,-1.726181 -0.97374,0 -1.53143,0.743586 -1.53143,1.752738 0,1.009152 0.53998,1.76159 1.57569,1.76159 z m -0.0266,-3.045161 c 0.61966,0 1.0003,0.451463 1.0003,1.026857 h -2.01387 c 0.073,-0.652851 0.44482,-1.026857 1.01357,-1.026857 z m -0.28327,-1.735033 h -0.73473 l 0.80555,0.902925 h 0.52228 z"/>
        <path inkscape:connector-curvature="0" id="path1107" style="font-style:normal;font-variant:normal;font-weight:normal;font-stretch:normal;line-height:0;font-family:'Inter UI';-inkscape-font-specification:'Inter UI';text-align:center;text-anchor:middle;fill:#333333;stroke-width:0.30942452" d="m -185.59705,80.030826 h -0.53113 l -0.92063,2.593698 h -0.0354 l -0.92063,-2.593698 h -0.53113 l 1.22161,3.399249 h 0.49572 z"/>
        <path inkscape:connector-curvature="0" id="path1109" style="font-style:normal;font-variant:normal;font-weight:normal;font-stretch:normal;line-height:0;font-family:'Inter UI';-inkscape-font-specification:'Inter UI';text-align:center;text-anchor:middle;fill:#333333;stroke-width:0.30942452" d="m -183.64072,83.500893 c 0.68162,0 1.2039,-0.31868 1.4075,-0.805551 l -0.46916,-0.203601 c -0.15934,0.327531 -0.53999,0.539985 -0.95604,0.539985 -0.54441,0 -0.96268,-0.365154 -1.02686,-1.097675 h 2.53173 v -0.221305 c 0,-1.248162 -0.75244,-1.726181 -1.53143,-1.726181 -0.97374,0 -1.53143,0.743586 -1.53143,1.752738 0,1.009152 0.53998,1.76159 1.57569,1.76159 z m -0.0266,-3.045161 c 0.61966,0 1.0003,0.451463 1.0003,1.026857 h -2.01387 c 0.073,-0.652851 0.44482,-1.026857 1.01357,-1.026857 z"/>
        <path inkscape:connector-curvature="0" id="path1111" style="font-style:normal;font-variant:normal;font-weight:normal;font-stretch:normal;line-height:0;font-family:'Inter UI';-inkscape-font-specification:'Inter UI';text-align:center;text-anchor:middle;fill:#333333;stroke-width:0.30942452" d="m -181.02047,83.492041 c 0.22131,0 0.39835,-0.177045 0.39835,-0.39835 0,-0.212453 -0.17704,-0.389497 -0.39835,-0.389497 -0.21245,0 -0.39835,0.168192 -0.39835,0.389497 0,0.221305 0.17705,0.39835 0.39835,0.39835 z"/>
        <path inkscape:connector-curvature="0" id="path1113" style="font-style:normal;font-variant:normal;font-weight:normal;font-stretch:normal;line-height:0;font-family:'Inter UI';-inkscape-font-specification:'Inter UI';text-align:center;text-anchor:middle;fill:#333333;stroke-width:0.30942452" d="m -179.46248,79.543954 c 0.23016,0 0.37179,-0.159339 0.37179,-0.354088 0,-0.177044 -0.14163,-0.354088 -0.37179,-0.354088 -0.23016,0 -0.3718,0.177044 -0.3718,0.354088 0,0.194749 0.14164,0.354088 0.3718,0.354088 z m -0.25672,0.486872 v 3.647111 c 0,0.345236 -0.14163,0.548837 -0.46031,0.548837 h -0.0974 v 0.486872 h 0.10623 c 0.65506,0 0.97374,-0.407202 0.97374,-1.035709 v -3.647111 z"/>
        <path inkscape:connector-curvature="0" id="path1115" style="font-style:normal;font-variant:normal;font-weight:normal;font-stretch:normal;line-height:0;font-family:'Inter UI';-inkscape-font-specification:'Inter UI';text-align:center;text-anchor:middle;fill:#333333;stroke-width:0.30942452" d="m -178.27629,84.704793 h 0.52228 v -1.690772 h 0.0354 c 0.17704,0.272206 0.47802,0.486872 0.96489,0.486872 0.91178,0 1.51373,-0.699325 1.51373,-1.770442 0,-1.062266 -0.60195,-1.743886 -1.51373,-1.743886 -0.47138,0 -0.76793,0.208027 -0.94719,0.469167 h -0.062 l -0.0354,-0.424906 h -0.47802 z m 0.54884,-2.407801 c -0.0575,-0.212453 -0.062,-0.478019 -0.062,-0.566541 0,-0.0841 0.004,-0.336384 0.0708,-0.566542 0.12393,-0.416054 0.51343,-0.708177 0.95604,-0.708177 0.57539,0 1.0003,0.486872 1.0003,1.274719 0,0.787846 -0.42491,1.301275 -0.99145,1.301275 -0.42491,0 -0.86752,-0.292123 -0.97374,-0.734734 z"/>
        <path inkscape:connector-curvature="0" id="path1117" style="font-style:normal;font-variant:normal;font-weight:normal;font-stretch:normal;line-height:0;font-family:'Inter UI';-inkscape-font-specification:'Inter UI';text-align:center;text-anchor:middle;fill:#333333;stroke-width:0.30942452" d="m -172.12402,80.04853 v 0.380646 h -0.0487 c -0.17262,-0.247862 -0.46032,-0.442611 -0.93391,-0.442611 -0.92063,0 -1.53143,0.68162 -1.53143,1.708477 0,1.071117 0.61965,1.735033 1.53143,1.735033 0.45367,0 0.74358,-0.199175 0.92284,-0.451463 h 0.0598 v 0.407202 c -0.009,0.593098 -0.39835,0.849812 -0.96489,0.849812 -0.56654,0 -0.7967,-0.309827 -0.92063,-0.451463 l -0.38949,0.309828 c 0.21245,0.300975 0.60195,0.610802 1.31012,0.610802 0.82326,0 1.48717,-0.44261 1.48717,-1.2039 V 80.04853 Z m -1.99174,1.646512 c 0,-0.76129 0.4249,-1.23931 1.018,-1.23931 0.45146,0 0.8144,0.300975 0.93833,0.699325 0.0664,0.230157 0.0708,0.451463 0.0708,0.531132 0,0.08852 -0.004,0.345237 -0.062,0.548838 -0.10623,0.433758 -0.53114,0.717029 -0.95604,0.717029 -0.56654,0 -1.00915,-0.451463 -1.00915,-1.257014 z"/>
      </g>
      <g id="g1130" transform="matrix(12.658045,0,0,12.658045,2298.8134,-983.88062)">
        <path sodipodi:nodetypes="ccccccccccccccccccccccccccc" inkscape:connector-curvature="0" style="opacity:1;fill:#aaaaaa;fill-opacity:1;stroke:none;stroke-width:0.79374999;stroke-linecap:square;stroke-linejoin:miter;stroke-miterlimit:4;stroke-dasharray:none;stroke-dashoffset:5.39899015;stroke-opacity:1;paint-order:normal" d="m -194.94017,42.999958 v 15.875 l 2.64584,-2.645833 2.64583,3.96875 3.96875,-3.96875 2.64583,2.645833 1.32292,-1.322916 2.64583,2.645833 1.32292,-1.322917 1.32292,1.322917 2.64583,-2.645833 V 50.937458 L -181.76875,43 Z m 2.64584,18.520834 -2.64584,2.645833 v 5.291666 h 21.16667 v -6.614583 l -2.64583,2.645833 -1.32292,-1.322916 -1.32292,1.322916 -2.64583,-2.645833 -1.32292,1.322917 -2.64583,-2.645833 -3.96875,3.968749 z" id="path961"/>
        <path sodipodi:nodetypes="ccc" style="fill:#ffffff;fill-opacity:0.48085106;stroke:none;stroke-width:0.79374999;stroke-linecap:butt;stroke-linejoin:miter;stroke-miterlimit:4;stroke-dasharray:none;stroke-opacity:1;paint-order:normal" d="m -181.76875,43 v 7.9375 l 7.99525,-4.2e-5" id="path963" inkscape:connector-curvature="0"/>
        <path sodipodi:nodetypes="cccccccccccccccccccccc" inkscape:connector-curvature="0" id="path965" d="m -173.7735,53.847875 c -5.13959,0.738222 -6.20653,0.930585 -10.58334,3.704209 l 1.32292,1.322874 1.32292,-1.322916 2.64583,2.645833 1.32292,-1.322917 1.32292,1.322917 2.64583,-2.645833 z m -11.90625,7.672917 -3.96875,3.968749 -1.32292,-1.984377 c -2.05636,1.95372 -3.96875,4.630253 -3.96875,4.630253 v 1.322874 h 21.16667 v -6.614583 l -2.64583,2.645833 -1.32292,-1.322916 -1.32292,1.322916 -2.64583,-2.645833 -1.32292,1.322917 z" style="fill:#dddddd;fill-opacity:1;stroke:none;stroke-width:0.26458332px;stroke-linecap:butt;stroke-linejoin:miter;stroke-opacity:1"/>
        <path id="path967" d="m -194.94017,42.999958 v 15.875 l 2.64584,-2.645833 2.64583,3.96875 3.96875,-3.96875 2.64583,2.645833 1.32292,-1.322916 2.64583,2.645833 1.32292,-1.322917 1.32292,1.322917 2.64583,-2.645833 v -6.614584 l -7.9375,-7.9375 z m 2.64584,18.520834 -2.64584,2.645833 v 5.291666 h 21.16667 v -6.614583 l -2.64583,2.645833 -1.32292,-1.322916 -1.32292,1.322916 -2.64583,-2.645833 -1.32292,1.322917 -2.64583,-2.645833 -3.96875,3.968749 z" style="opacity:1;fill:none;fill-opacity:1;stroke:none;stroke-width:0.79374999;stroke-linecap:square;stroke-linejoin:miter;stroke-miterlimit:4;stroke-dasharray:none;stroke-dashoffset:5.39899015;stroke-opacity:1;paint-order:fill markers stroke" inkscape:connector-curvature="0" sodipodi:nodetypes="ccccccccccccccccccccccccccc"/>
        <path sodipodi:nodetypes="sccccccccss" inkscape:connector-curvature="0" id="path969" d="m -188.9349,46.136843 c -0.78716,0 -1.42529,0.631871 -1.42529,1.411323 3.8e-4,0.04395 0.003,0.08786 0.007,0.131576 -0.14607,-0.08577 -0.31269,-0.131202 -0.48251,-0.131576 -0.52478,0 -0.95019,0.421247 -0.95019,0.940882 3.7e-4,0.06639 0.007,0.132537 0.0223,0.197364 -1.52757,0 -1.47642,1.684398 -1.47642,1.684398 h 8.10547 c 1.40611,-1.967225 -0.80621,-3.906062 -2.37547,-2.822644 0,-0.779452 -0.63811,-1.411323 -1.42528,-1.411323 z" style="fill:#ffffff;stroke:none;stroke-width:0.26458332px;stroke-linecap:butt;stroke-linejoin:miter;stroke-opacity:1"/>
        <path style="fill:url(#linearGradient1170);fill-opacity:1;stroke:none;stroke-width:0.26458332px;stroke-linecap:butt;stroke-linejoin:miter;stroke-opacity:1" d="m -181.76875,50.937501 h 7.9375 v 5.820833 z" id="path977" inkscape:connector-curvature="0"/>
      </g>
    </g>
  </g>
</svg>
